<svg xmlns="http://www.w3.org/2000/svg" viewBox="0.1289060115814209 0 1378.56103515625 527.8709716796875" fill="none" preserveAspectRatio="xMidYMid meet" role="img">
<path d="M0.128906 520H329.191V452.461H78.5859V293.262H309.133V225.977H78.5859V67.5391H326.145V0H0.128906V520Z" fill="#111827"></path>
<path d="M697.708 130H616.205L517.689 430.117H513.626L414.857 130H333.353L475.033 520H556.283L697.708 130Z" fill="#111827"></path>
<path d="M862.402 527.871C947.461 527.871 1007.64 485.977 1024.9 422.5L953.047 409.551C939.336 446.367 906.328 465.156 863.164 465.156C798.164 465.156 754.492 423.008 752.461 347.852H1029.73V320.938C1029.73 180.02 945.43 124.922 857.07 124.922C748.398 124.922 676.797 207.695 676.797 327.539C676.797 448.652 747.383 527.871 862.402 527.871ZM752.715 290.977C755.762 235.625 795.879 187.637 857.578 187.637C916.484 187.637 955.078 231.309 955.332 290.977H752.715Z" fill="#111827"></path>
<path d="M1129.1 288.438C1129.1 226.23 1167.19 190.684 1220 190.684C1271.54 190.684 1302.77 224.453 1302.77 281.074V520H1378.69V271.934C1378.69 175.449 1325.63 124.922 1245.9 124.922C1187.25 124.922 1148.91 152.09 1130.88 193.477H1126.06V130H1053.18V520H1129.1V288.438Z" fill="#111827"></path>
</svg>